<?xml version="1.0" encoding="UTF-8" standalone="no"?>
<svg
   xmlns:dc="http://purl.org/dc/elements/1.1/"
   xmlns:cc="http://creativecommons.org/ns#"
   xmlns:rdf="http://www.w3.org/1999/02/22-rdf-syntax-ns#"
   xmlns:svg="http://www.w3.org/2000/svg"
   xmlns="http://www.w3.org/2000/svg"
   xmlns:xlink="http://www.w3.org/1999/xlink"
   xmlns:sodipodi="http://sodipodi.sourceforge.net/DTD/sodipodi-0.dtd"
   xmlns:inkscape="http://www.inkscape.org/namespaces/inkscape"
   version="1.1"
   id="Layer_1"
   x="0px"
   y="0px"
   width="1400px"
   height="1568px"
   viewBox="0 0 1400 1568"
   enable-background="new 0 0 1400 1568"
   xml:space="preserve"
   sodipodi:docname="logo.png.svg"
   inkscape:version="1.0.2-2 (e86c870879, 2021-01-15)"><metadata
   id="metadata111"><rdf:RDF><cc:Work
       rdf:about=""><dc:format>image/svg+xml</dc:format><dc:type
         rdf:resource="http://purl.org/dc/dcmitype/StillImage" /><dc:title /></cc:Work></rdf:RDF></metadata><defs
   id="defs109"><rect
   x="178.00512"
   y="867.77494"
   width="481.17008"
   height="100.12788"
   id="rect1014" />
	
	
	
	
	
</defs><sodipodi:namedview
   pagecolor="#ffffff"
   bordercolor="#666686"
   borderopacity="1"
   objecttolerance="10"
   gridtolerance="10"
   guidetolerance="10"
   inkscape:pageopacity="0"
   inkscape:pageshadow="2"
   inkscape:window-width="1600"
   inkscape:window-height="837"
   id="namedview107"
   showgrid="false"
   inkscape:pagecheckerboard="true"
   inkscape:zoom="0.34589431"
   inkscape:cx="767.85609"
   inkscape:cy="716.95555"
   inkscape:window-x="-8"
   inkscape:window-y="-8"
   inkscape:window-maximized="1"
   inkscape:current-layer="Layer_1"
   inkscape:document-rotation="0" />
<g
   id="g4"
   transform="translate(250.31969,16.68798)">
		
	</g><g
   id="g84"
   transform="translate(-489.51408,130.72251)">
		
		
		
		
		
		
	</g>
<g
   id="g70"
   transform="matrix(0.33044885,0,0,0.26006726,233.33834,393.34542)">
		<path
   fill="#55cbd9"
   d="m 1149.4,559.9 c 0,-248.2 -201.2,-449.5 -449.5,-449.5 -248.2,0 -449.5,201.3 -449.5,449.5 0,83.1 22.6,160.9 61.9,227.6 h -0.1 l 387.6,666.9 387.7,-666.9 h -0.2 c 39.5,-66.8 62.1,-144.6 62.1,-227.6 z"
   id="path8" />
		<polygon
   fill="#b1c72a"
   points="407.1,950.7 992.7,950.7 1039.9,869.5 359.9,869.5 "
   id="polygon10" />
		<polygon
   fill="#ffed6e"
   points="407.1,950.7 451.2,1026.5 948.6,1026.5 992.7,950.7 "
   id="polygon12" />
		<polygon
   fill="#004d67"
   points="809.6,1265.6 590.2,1265.6 699.9,1454.4 "
   id="polygon14" />
		<path
   fill="#23d2e0"
   d="m 844.5,1133.4 c -16.1,-17.5 -42.4,-17.5 -58.5,0 -16.1,17.5 -42.4,17.5 -58.5,0 -16.1,-17.5 -42.4,-17.5 -58.5,0 -16.1,17.5 -42.4,17.5 -58.5,0 -16.1,-17.5 -42.4,-17.5 -58.5,0 -8.5,9.2 -19.8,13.6 -30.9,13.1 l 69.2,119.1 h 219.5 l 69.5,-119.5 c -12.5,1.7 -25.4,-2.5 -34.8,-12.7 z"
   id="path16" />
		<path
   fill="#27efff"
   d="m 520.9,1146.4 c 11.1,0.5 22.4,-3.8 30.9,-13.1 16.1,-17.5 42.4,-17.5 58.5,0 16.1,17.5 42.4,17.5 58.5,0 16.1,-17.5 42.4,-17.5 58.5,0 16.1,17.5 42.4,17.5 58.5,0 16.1,-17.5 42.4,-17.5 58.5,0 9.4,10.3 22.3,14.5 34.6,12.7 l 69.5,-119.6 H 451.2 Z"
   id="path18" />
		<path
   fill="#ffffff"
   d="m 944.9,262.2 c 0,-0.3 0,-0.6 0,-0.9 0,-19.4 -15.8,-35.2 -35.2,-35.2 -2.7,0 -5.4,0.3 -8,0.9 -3.5,-31.4 -30.3,-55.6 -62.1,-55.6 -21.5,0 -41.6,11.2 -53,29.3 -7.1,-3.6 -14.9,-5.5 -22.8,-5.5 -21.2,0 -40,13.1 -47.4,32.8 -3.8,-1.3 -7.7,-2 -11.8,-2 -19.4,0 -35.2,15.8 -35.2,35.2 0,0.3 0,0.6 0,0.9 h 275.5 z"
   id="path20" />
		<path
   fill="#ffffff"
   d="m 546.3,294.7 c 2.7,-5.8 4.2,-12.3 4.2,-19.1 0,-25.2 -20.5,-45.8 -45.8,-45.8 -17.4,0 -33.3,10 -41,25.5 -2.7,-0.7 -5.5,-1.1 -8.4,-1.1 -18.5,0 -33.5,15 -33.5,33.5 0,2.3 0.2,4.6 0.7,6.8 h 123.8 z"
   id="path22" />
		<path
   fill="#ebd966"
   d="m 833.2,316.3 c 5.2,11.6 8.2,24.5 8.2,38 0,51.3 -41.6,92.9 -92.9,92.9 -22.7,0 -43.4,-8.1 -59.6,-21.6 14.5,32.3 47,54.8 84.7,54.8 51.3,0 92.9,-41.6 92.9,-92.9 0,-28.6 -13,-54.2 -33.3,-71.2 z"
   id="path24" />
		<path
   fill="#ffed6e"
   d="m 841.3,354.3 c 0,-13.6 -2.9,-26.4 -8.2,-38 -16.1,-13.5 -36.9,-21.6 -59.6,-21.6 -51.3,0 -92.9,41.6 -92.9,92.9 0,13.6 2.9,26.4 8.2,38 16.1,13.5 36.9,21.6 59.6,21.6 51.3,0 92.9,-41.6 92.9,-92.9 z"
   id="path26" />
		<path
   fill="#ffffff"
   d="m 946.2,410.5 c 0,-0.5 0.1,-1 0.1,-1.4 0,-10.4 -8.5,-18.9 -18.9,-18.9 -4,0 -7.9,1.3 -11.1,3.6 -3,-2.2 -6.6,-3.4 -10.3,-3.6 0.1,-1.4 0.2,-2.8 0.2,-4.1 0,-21.2 -17.2,-38.4 -38.4,-38.4 -14.2,0 -27.1,7.7 -33.8,20.2 -2.5,-0.7 -5.1,-1 -7.7,-1 -16.8,0 -30.5,13.7 -30.5,30.5 0,4.7 1.1,9.1 2.9,13.1 z"
   id="path28" />
		<g
   id="g68">
			<defs
   id="defs31">
				<path
   id="SVGID_1_"
   d="m 1149.4,559.9 c 0,-248.2 -201.2,-449.5 -449.5,-449.5 -248.2,0 -449.5,201.3 -449.5,449.5 0,83.1 22.6,160.9 61.9,227.6 h -0.1 l 387.6,666.9 387.7,-666.9 h -0.2 c 39.5,-66.8 62.1,-144.6 62.1,-227.6 z" />
			</defs>
			<clipPath
   id="SVGID_2_">
				<use
   xlink:href="#SVGID_1_"
   overflow="visible"
   id="use33"
   x="0"
   y="0"
   width="100%"
   height="100%" />
			</clipPath>
			<g
   clip-path="url(#SVGID_2_)"
   id="g66">
				<g
   id="g52">
					<polygon
   fill="#005660"
   points="772.5,617.4 773.4,616.3 771.9,616.6 "
   id="polygon36" />
					<polygon
   fill="#005660"
   points="632.2,482.3 698.7,630.6 771.9,616.6 669.5,477.2 "
   id="polygon38" />
					<polygon
   fill="#e0e0e0"
   points="632.2,482.3 669.5,477.2 567.8,338.7 "
   id="polygon40" />
					<polygon
   fill="#ffffff"
   points="577.1,474.9 607.1,521.9 632.2,482.3 567.8,338.7 458.9,486.9 519.6,454.8 542.2,521.9 "
   id="polygon42" />
					<polygon
   fill="#ffffff"
   points="840.4,525 866.6,525 891.7,550.6 913.5,525 946.2,546 900.7,443 "
   id="polygon44" />
					<polygon
   fill="#e0e0e0"
   points="946.2,546 956.1,518.4 900.7,443 "
   id="polygon46" />
					<polygon
   fill="#005660"
   points="1180.9,824.4 956.1,518.4 946.2,546 993.7,653.3 924.6,625 857.5,733.1 800.9,824.4 924.6,824.4 "
   id="polygon48" />
					<polygon
   fill="#006a75"
   points="993.7,653.3 946.2,546 913.5,525 891.7,550.6 866.6,525 840.4,525 773.4,616.3 772.5,617.4 771.9,616.6 698.7,630.6 632.2,482.3 607.1,521.9 577.1,474.9 542.2,521.9 519.6,454.8 458.9,486.9 211,824.4 620.5,824.4 785.6,824.4 800.9,824.4 857.5,733.1 924.6,625 "
   id="polygon50" />
				</g>
				<polygon
   fill="#9ab85e"
   points="486.1,677.4 285.6,869.5 453.8,869.5 "
   id="polygon54" />
				<polygon
   fill="#0f7f6f"
   points="1078.6,869.5 486.1,677.4 453.8,869.5 "
   id="polygon56" />
				<polygon
   fill="#0f7f6f"
   points="1178.9,869.5 855.1,637 749.3,869.5 "
   id="polygon58" />
				<polygon
   fill="#9ab85e"
   points="855.1,637 627.4,869.5 749.3,869.5 "
   id="polygon60" />
				<path
   fill="#ffffff"
   d="m 1220.4,479.7 c 0.3,-2.2 0.5,-4.4 0.5,-6.6 0,-26.1 -21.3,-47.4 -47.4,-47.4 -2.4,0 -4.7,0.2 -7.1,0.5 -10.8,-23.7 -34.3,-38.9 -60.6,-38.9 -26.3,0 -49.7,15.2 -60.5,38.9 -2.3,-0.4 -4.7,-0.5 -7.1,-0.5 -26.1,0 -47.4,21.3 -47.4,47.4 0,2.2 0.2,4.4 0.5,6.6 z"
   id="path62" />
				<path
   fill="#ffffff"
   d="m 446.8,450 c 0.3,-1.9 0.4,-3.7 0.4,-5.7 0,-22.4 -18.2,-40.5 -40.5,-40.5 -2,0 -4.1,0.1 -6,0.5 C 391.4,384 371.3,371 348.9,371 c -22.4,0 -42.5,13 -51.8,33.3 -2,-0.3 -4,-0.5 -6,-0.5 -22.4,0 -40.5,18.2 -40.5,40.5 0,1.9 0.2,3.8 0.4,5.7 z"
   id="path64" />
			</g>
		</g>
	</g><text
   xml:space="preserve"
   style="font-style:normal;font-weight:normal;font-size:40px;line-height:1.25;font-family:sans-serif;white-space:pre;inline-size:499.234;fill:#000000;fill-opacity:1;stroke:none"
   x="553.48468"
   y="798.2417"
   id="text976"
   transform="matrix(2.4945484,0,0,5.4832842,-1178.2054,-3477.9879)"><tspan
     x="553.48468"
     y="798.2417"><tspan
       style="fill:#001e76;fill-opacity:1">ja</tspan><tspan
       style="font-style:normal;font-variant:normal;font-weight:normal;font-stretch:normal;font-family:'Script MT Bold';-inkscape-font-specification:'Script MT Bold, '">  </tspan><tspan
       style="fill:#fffa00;fill-opacity:1">B </tspan><tspan
       style="fill:#003b76;fill-opacity:1">i</tspan><tspan
       style="fill:#000076;fill-opacity:1"> </tspan><tspan
       style="fill:#fffa00;fill-opacity:1">H</tspan><tspan
       style="font-style:normal;font-variant:normal;font-weight:normal;font-stretch:normal;font-family:'Script MT Bold';-inkscape-font-specification:'Script MT Bold, '">  </tspan><tspan
       style="fill:#001e76;fill-opacity:1">da</tspan><tspan
       style="fill:#ffff0a;fill-opacity:1">  </tspan><tspan
       style="fill:#fff00a;fill-opacity:1">putujem</tspan></tspan></text><text
   xml:space="preserve"
   id="text1012"
   style="fill:black;fill-opacity:1;line-height:1.25;stroke:none;font-family:sans-serif;font-style:normal;font-weight:normal;font-size:40px;white-space:pre;shape-inside:url(#rect1014);" /></svg>
